<svg version="1.1" xmlns="http://www.w3.org/2000/svg" xmlns:xlink="http://www.w3.org/1999/xlink" viewBox="0 0 486.213 486.213"><path d="M366 255.8l11.4 27.7 54.8-22.6c-10.4 86.8-79.1 156.5-167.9 166.3l-5.2 0.6 -1 1V181.2h101v-30H258.1v-42.6c23.2-6.6 40.3-27.9 40.3-53.2 0-30.5-24.8-55.3-55.3-55.3s-55.3 24.8-55.3 55.3c0 25.3 17.1 46.7 40.3 53.2v42.6H127.2v30h101v247.6l-1-1 -5.2-0.6C133.1 417.4 64.4 347.7 54 260.9l54.8 22.6 11.4-27.7 -97.6-40.2v22.4c0 54.6 20.1 107 56.6 147.5 35 38.9 82.5 63.9 134 70.9l29.8 29.8 29.8-29.8c51.5-7 99-32 134-70.9 36.5-40.5 56.6-92.9 56.6-147.5v-22.4L366 255.8zM217.8 55.3c0-14 11.4-25.3 25.3-25.3s25.3 11.4 25.3 25.3 -11.4 25.3-25.3 25.3S217.8 69.3 217.8 55.3z"/></svg>