<?xml version="1.0"?>
<svg version="1.1" xmlns="http://www.w3.org/2000/svg" xmlns:xlink="http://www.w3.org/1999/xlink" viewBox="0 0 378.441 378.441" xml:space="preserve"><g style='fill: #3381FF'><path d="M348.185,311.319l-165.998-59.58l13.57-88.955l122.09,18.531c10.203,1.523,20.062-5.075,22.337-15.301c2.379-10.693-4.359-21.29-15.052-23.669c0,0-116.384-26.276-145.925-35.651c-9.546-3.029-78.671-24.327-102.605,0.357L24.41,162.078l-2.019,2.123c-0.874,0.934-1.665,1.97-2.354,3.104c-5.4,8.883-2.577,20.462,6.306,25.862l47.033,28.593c6.598,4.02,15.323,2.744,20.456-3.347c5.669-6.728,4.812-16.777-1.916-22.446l-22.371-18.852l14.99-12.195l-1.496,11.405l0.309,0.293l15.986,12.575c5.297,4.463,8.538,10.722,9.127,17.623c0.589,6.9-1.544,13.618-6.007,18.914c-4.937,5.858-12.053,8.917-19.834,8.542c-1.405-0.068-5.65-0.957-7.026-1.182l-5.609,28.269L23.68,300.67c-3.469,2.965-6.21,6.872-7.784,11.506c-4.67,13.739,2.683,28.663,16.422,33.333l93.219,31.681c11.812,3.986,24.909-1.833,29.688-13.532c4.971-12.167-0.863-26.06-13.03-31.03l-45.622-18.637c0,0,26.915-19.324,27.36-19.683l209.438,62.219c12.002,3.54,24.893-2.844,29.174-14.771C366.984,329.385,360.555,315.759,348.185,311.319z"/><circle cx="160.141" cy="46.995" r="46.995"/></g></svg>