<?xml version="1.0" encoding="utf-8"?>
<!-- Generator: Adobe Illustrator 16.0.0, SVG Export Plug-In . SVG Version: 6.00 Build 0)  -->
<!DOCTYPE svg PUBLIC "-//W3C//DTD SVG 1.1//EN" "http://www.w3.org/Graphics/SVG/1.1/DTD/svg11.dtd">
<svg version="1.1" id="Layer_1" xmlns="http://www.w3.org/2000/svg" xmlns:xlink="http://www.w3.org/1999/xlink" x="0px" y="0px"
	 width="1000px" height="1000px" viewBox="0 0 1000 1000" enable-background="new 0 0 1000 1000" xml:space="preserve">
<g>
	<path fill="#CDB18A" d="M911.582,613.829c0-275.868-263.417-365.325-420.001-365.325c-156.566,0-420.004,89.458-420.004,365.325
		c0,275.867-35.813,173.95-62.082,335.869c-3.193,19.698-4.284,36.527-3.768,51.149c4.23,0.046,8.594,0.097,13.027,0.152
		c5.555-0.359,13.75-0.673,23.439-0.944c8.859-0.371,17.727-0.57,26.604-0.596c44.254-0.803,96.754-1.039,90.406-0.976
		c119.26-1.192,238.531-1.481,357.796-1.481s238.536,0.289,357.796,1.481c-0.107-0.001-0.191-0.002-0.266-0.003h-0.02
		c-0.035,0-0.051-0.001-0.078-0.001c-0.025-0.001-0.043-0.001-0.063-0.001c-0.013-0.001-0.031-0.001-0.041-0.001
		c-0.038-0.001-0.054-0.001-0.052-0.002c0.097-0.018,22.624,0.092,50.121,0.4h0.007c0.024,0,0.049,0.001,0.074,0.001
		c1.007,0.011,2.021,0.022,3.04,0.034c0.161,0.002,0.318,0.004,0.479,0.006c0.48,0.006,0.952,0.011,1.436,0.017
		c0.016,0.001,0.031,0.001,0.047,0.001h0.034c1.493,0.019,2.996,0.036,4.509,0.056c0.164,0.002,0.328,0.004,0.491,0.006
		c1.094,0.014,2.191,0.027,3.293,0.042c0.384,0.005,0.764,0.01,1.148,0.015c0.319,0.005,0.636,0.009,0.955,0.013
		c0.043,0.001,0.086,0.001,0.129,0.002c4.482,0.061,9.007,0.125,13.508,0.195h0.017c0.821,0.013,1.642,0.026,2.462,0.039
		c0.156,0.003,0.312,0.006,0.468,0.008l0.149,0.003c0.391,0.006,0.781,0.013,1.172,0.019c0.338,0.006,0.676,0.011,1.014,0.017
		c0.037,0.001,0.074,0.002,0.111,0.002c0.401,0.007,0.8,0.014,1.199,0.021c0.018,0,0.034,0.001,0.052,0.001
		c1.089,0.019,2.175,0.037,3.257,0.057c0.041,0.001,0.083,0.001,0.125,0.002c0.148,0.003,0.298,0.005,0.446,0.008
		c0.029,0.001,0.059,0.001,0.087,0.002c0.471,0.008,0.939,0.017,1.407,0.025c0.04,0.001,0.08,0.001,0.12,0.002
		c0.381,0.007,0.763,0.014,1.142,0.021c0.033,0.001,0.066,0.002,0.099,0.002c2.295,0.043,4.565,0.087,6.802,0.133
		c0.05,0.001,0.101,0.002,0.15,0.003c0.225,0.005,0.451,0.009,0.675,0.014c0.032,0.001,0.063,0.002,0.096,0.002
		c0.282,0.006,0.56,0.012,0.841,0.018c0.592,0.013,1.182,0.025,1.769,0.038c0.017,0,0.034,0.001,0.051,0.001
		c0.082,0.002,0.163,0.004,0.245,0.005c0.212,0.005,0.418,0.01,0.629,0.014c1.123,0.025,2.234,0.05,3.335,0.075
		c0.185,0.005,0.37,0.009,0.553,0.013c0.064,0.002,0.128,0.004,0.192,0.005c0.116,0.003,0.229,0.006,0.345,0.008
		c0.156,0.004,0.307,0.008,0.463,0.012c1.142,0.026,2.271,0.055,3.384,0.082c0.142,0.004,0.284,0.007,0.424,0.011
		c0.051,0.002,0.102,0.003,0.152,0.004c0.215,0.006,0.426,0.012,0.64,0.017c0.128,0.003,0.253,0.007,0.38,0.01
		c0.065,0.002,0.13,0.004,0.195,0.005c0.329,0.009,0.658,0.018,0.983,0.026c0.026,0.001,0.053,0.001,0.079,0.002
		c0.09,0.003,0.178,0.005,0.267,0.007c0.527,0.015,1.051,0.029,1.569,0.043c0.105,0.003,0.213,0.006,0.317,0.009l0.205,0.006
		c0.083,0.002,0.163,0.005,0.246,0.007c0.07,0.002,0.138,0.004,0.208,0.006c1.221,0.035,2.418,0.069,3.588,0.105
		c0.067,0.002,0.136,0.004,0.202,0.006c0.006,0.001,0.013,0.001,0.019,0.001c0.652,0.021,1.296,0.04,1.931,0.061
		c0.04,0.002,0.079,0.003,0.118,0.004c0.019,0.001,0.037,0.001,0.055,0.002L911.582,613.829z"/>
	<path fill="#DFCFB7" d="M511.932,897.948c-360.349,0-378.049-368.205-263.434-454.801c111.833-84.5,221.184-12.425,263.434,69.583
		c42.25-82.009,151.6-154.083,263.433-69.583C889.981,529.743,872.299,897.948,511.932,897.948z"/>
	<path fill="#967348" d="M186.911,629.371c4.913,59.633,27.598,121.926,72.875,171.554c1.955-36.613,19.426-76.892,53.118-103.837
		c60.195-48.15,139.8-62.565,139.8-122.154C452.704,517.89,381.554,434.094,186.911,629.371z M571.16,574.934
		c0,59.589,79.603,74.004,139.8,122.154c33.69,26.945,51.161,67.224,53.115,103.837c45.28-49.628,67.963-111.921,72.896-171.554
		C642.31,434.094,571.16,517.89,571.16,574.934z"/>
	<path fill="#49331C" d="M681.407,574.934c0,24.145-19.584,43.729-43.746,43.729c-24.129,0-43.714-19.585-43.714-43.729
		c0-24.154,19.585-43.737,43.714-43.737C661.823,531.196,681.407,550.779,681.407,574.934z"/>
	<path fill="#49331C" d="M342.456,574.934c0,24.145,19.583,43.729,43.747,43.729c24.128,0,43.729-19.585,43.729-43.729
		c0-24.154-19.601-43.737-43.729-43.737C362.039,531.196,342.456,550.779,342.456,574.934z"/>
	<path fill="#967348" d="M511.932,644.816c-34.519,0-82,10.303-82,36.042c0,25.738,25.907,56.639,82,56.639
		c56.092,0,82.016-30.9,82.016-56.639C593.947,655.119,546.451,644.816,511.932,644.816z"/>
	<g>
		<path fill="none" stroke="#49331C" stroke-width="14.9479" stroke-linecap="round" stroke-miterlimit="10" d="M371.356,745.729
			c28.302,28.312,95.771,46.46,140.576,46.46c44.822,0,112.272-18.148,140.592-46.46"/>
	</g>
</g>
</svg>
