<svg xmlns="http://www.w3.org/2000/svg" version="1.1" viewBox="0 0 999 571.6"><path fill="#B99664" d="M258 265.7c-29.9 29.9-63.8 84-58.3 116.4 5.4 32.4 33.4 109.6-19.5 109.6s-65.4-89.5-65.4-145.1c0-56.2 28-133.8 74.7-161.2C236.2 158 258 265.7 258 265.7z"/><path fill="#886941" d="M3.3 316.6c100.7 0.6 397.3-20.9 494.2-39.2 96.9-18.3 413.2-40.6 472.3-73.7 0 0 31.5 18.4 19.6 45.6 -11.9 27.2-462.7 70-538.9 79 -76.3 9-436.8 18.5-452.9 18.4L3.3 316.6z"/><path fill="#CDB18A" d="M462.9 80c74.2-18.2 94.4-7.2 143-48.9 48.6-41.7 144.6-47.9 199.8 21.2 55.3 69.1-24.8 212.9-182.7 303.1 -157.9 90.2-414.4 96.1-432.9-94.2C177.4 131.7 346.4 108.5 462.9 80z"/><path fill="#DFCFB7" d="M693.1 54.9c34.3-2.4 104.4 28.5 88.3 86.8 -19.2 69.4-118.9 48.9-144.6 33.8 -25.7-15.2-76.3-71.3-25.7-128.3C651 2.4 684.9 40.5 693.1 54.9z"/><path fill="#967348" d="M734.8 105.9c-22.7-12.6-29.3 6.9-21.9 19.9 5.6 9.9 12.1 40.6 9.8 63.4 19.1-2.8 36.8-10.5 48.4-26.1C768.6 137.6 751.7 115.3 734.8 105.9z"/><path fill="#967348" d="M651.7 67.5c-16.9-8.4-42.5-3.1-60.9 18.6 -3 15.4-0.2 29.9 5.4 42.8 12.8-17.7 29.7-33.8 47.8-33.1C665.2 96.5 669.6 76.3 651.7 67.5z"/><path fill="#49331C" d="M654.3 82.7c-1.3 4.9-6.4 7.8-11.3 6.5 -4.9-1.3-7.8-6.4-6.5-11.3 1.3-4.9 6.4-7.8 11.3-6.5C652.7 72.7 655.6 77.8 654.3 82.7z"/><path fill="#49331C" d="M733.4 119c-1.3 4.9-6.4 7.8-11.3 6.5 -4.9-1.3-7.8-6.4-6.5-11.3 1.3-4.9 6.4-7.8 11.3-6.5C731.8 109 734.7 114.1 733.4 119z"/><path fill="#967348" d="M672.5 106.6c15.7 4.3 25 17.2 19.4 25.9 -7.8 12.2-34.3-0.3-40.4-11C646.2 112.1 650.5 100.6 672.5 106.6z"/><path fill="none" stroke="#49331C" stroke-width="4.4" stroke-linecap="round" stroke-miterlimit="10" d="M633.1 125.3c17.9 19.1 51.1 31.5 70.4 24.7"/><g fill="#49331C"><path d="M495.1 478.6c-6.6 11.9-14.5 32.3-11.3 34 3.2 1.8 16.3-15.8 22.9-27.6 5.4-9.8 4.1-13.6 0.9-15.3C504.4 467.9 500.5 468.8 495.1 478.6z"/><path d="M479.9 464.6c-6.6 11.9-14.5 32.3-11.3 34 3.2 1.8 16.3-15.8 22.9-27.6 5.4-9.8 4.1-13.6 0.9-15.3C489.2 453.9 485.3 454.8 479.9 464.6z"/><path d="M516.1 486.5c-6.6 11.9-14.5 32.3-11.3 34 3.2 1.8 16.3-15.8 22.9-27.6 5.4-9.8 4.1-13.6 0.9-15.3C525.4 475.8 521.5 476.7 516.1 486.5z"/></g><g fill="#B99664"><path d="M711.1 267.6c-44 35-128.4 242.1-195.5 220.9 -67.1-21.2-28.7-108.7 38.2-189.1C619.5 220.4 676.3 212.5 711.1 267.6z"/><path d="M332.6 345.6c-29.9 29.9-63.8 84-58.3 116.4 5.4 32.4 33.4 109.6-19.5 109.6 -52.9 0-65.4-89.5-65.4-145.1 0-56.2 28-133.8 74.7-161.2C310.8 237.9 332.6 345.6 332.6 345.6z"/></g></svg>