<?xml version="1.0" encoding="utf-8"?>
<!-- Generator: Adobe Illustrator 16.0.0, SVG Export Plug-In . SVG Version: 6.00 Build 0)  -->
<!DOCTYPE svg PUBLIC "-//W3C//DTD SVG 1.1//EN" "http://www.w3.org/Graphics/SVG/1.1/DTD/svg11.dtd">
<svg version="1.1" id="Layer_1" xmlns="http://www.w3.org/2000/svg" xmlns:xlink="http://www.w3.org/1999/xlink" x="0px" y="0px"
	 width="999px" height="571.566px" viewBox="0 0 999 571.566" enable-background="new 0 0 999 571.566" xml:space="preserve">
<g>
	<path fill="#B99664" d="M257.972,265.69c-29.884,29.883-63.761,84.045-58.344,116.414c5.428,32.373,33.44,109.571-19.476,109.571
		s-65.369-89.471-65.369-145.056c0-56.205,28.023-133.847,74.706-161.237C236.179,157.988,257.972,265.69,257.972,265.69z"/>
	<path fill="#886941" d="M3.25,316.591c100.682,0.617,397.282-20.921,494.188-39.243c96.896-18.315,413.247-40.579,472.271-73.729
		c0,0,31.461,18.419,19.617,45.6c-11.856,27.186-462.673,70.023-538.923,79.013c-76.266,8.99-436.766,18.455-452.895,18.356
		L3.25,316.591z"/>
	<g>
		<path fill="#CDB18A" d="M462.91,79.995c74.168-18.167,94.422-7.188,143.026-48.869c48.604-41.679,144.571-47.889,199.832,21.236
			c55.259,69.12-24.849,212.949-182.749,303.104c-157.906,90.154-414.358,96.076-432.945-94.229
			C177.418,131.703,346.372,108.536,462.91,79.995z"/>
		<path fill="#DFCFB7" d="M693.095,54.93c34.267-2.375,104.395,28.511,88.26,86.819c-19.209,69.42-118.89,48.942-144.554,33.775
			c-25.666-15.172-76.294-71.328-25.663-128.288C651.007,2.391,684.88,40.541,693.095,54.93z"/>
		<path fill="#967348" d="M734.768,105.902c-22.656-12.613-29.301,6.919-21.871,19.928c5.637,9.88,12.12,40.6,9.819,63.403
			c19.058-2.823,36.809-10.511,48.365-26.062C768.629,137.578,751.713,115.34,734.768,105.902z"/>
		<path fill="#967348" d="M651.694,67.451c-16.937-8.367-42.51-3.121-60.938,18.647c-2.986,15.369-0.247,29.934,5.416,42.791
			c12.837-17.677,29.722-33.761,47.795-33.147C665.169,96.464,669.555,76.272,651.694,67.451z"/>
		<path fill="#49331C" d="M654.274,82.738c-1.343,4.922-6.418,7.816-11.344,6.475c-4.914-1.343-7.814-6.417-6.469-11.343
			c1.343-4.92,6.418-7.817,11.338-6.475C652.723,72.741,655.62,77.816,654.274,82.738z"/>
		<path fill="#49331C" d="M733.351,118.972c-1.349,4.92-6.424,7.816-11.343,6.475c-4.92-1.346-7.82-6.42-6.475-11.343
			c1.343-4.917,6.42-7.814,11.34-6.474C731.793,108.974,734.693,114.052,733.351,118.972z"/>
		<path fill="#967348" d="M672.533,106.639c15.714,4.292,24.951,17.223,19.397,25.858c-7.835,12.189-34.269-0.347-40.371-11.024
			C646.239,112.142,650.524,100.629,672.533,106.639z"/>
		<path fill="none" stroke="#49331C" stroke-width="4.4269" stroke-linecap="round" stroke-miterlimit="10" d="M633.08,125.289
			c17.871,19.102,51.091,31.492,70.402,24.693"/>
	</g>
	<g>
		<g>
			<path fill="#49331C" d="M495.085,478.586c-6.557,11.861-14.457,32.26-11.262,34.029c3.201,1.778,16.293-15.752,22.852-27.619
				c5.413-9.775,4.115-13.557,0.915-15.32C504.389,467.897,500.501,468.8,495.085,478.586z"/>
			<path fill="#49331C" d="M479.914,464.612c-6.564,11.858-14.47,32.266-11.258,34.037c3.203,1.77,16.289-15.761,22.852-27.62
				c5.41-9.782,4.111-13.557,0.903-15.329C489.216,453.93,485.327,454.837,479.914,464.612z"/>
			<path fill="#49331C" d="M516.133,486.5c-6.563,11.864-14.471,32.264-11.269,34.033c3.207,1.772,16.294-15.76,22.856-27.622
				c5.414-9.782,4.111-13.558,0.905-15.327C525.429,475.817,521.546,476.718,516.133,486.5z"/>
		</g>
		<path fill="#B99664" d="M711.147,267.583c-44.027,34.98-128.388,242.14-195.468,220.948
			c-67.08-21.197-28.687-108.701,38.164-189.117C619.506,220.435,676.296,212.466,711.147,267.583z"/>
	</g>
	<path fill="#B99664" d="M332.591,345.581c-29.885,29.883-63.761,84.046-58.345,116.415c5.428,32.372,33.441,109.57-19.475,109.57
		c-52.917,0-65.369-89.469-65.369-145.058c0-56.202,28.022-133.848,74.706-161.234C310.798,237.879,332.591,345.581,332.591,345.581
		z"/>
</g>
<rect id="_x3C_Slice_x3E_" y="-105.455" fill="none" width="999" height="704"/>
</svg>
